<svg xmlns="http://www.w3.org/2000/svg" viewBox="0 0 64 64">
  <rect width="64" height="64" rx="14" fill="#8f2d00"/>
  <circle cx="32" cy="32" r="25" fill="#fff4e6"/>
  <circle cx="32" cy="32" r="18" fill="#f5f5f5" stroke="#161616" stroke-width="2"/>
  <polygon points="32,21 39,27 36,36 28,36 25,27" fill="#161616"/>
  <polygon points="32,14 37,18 35,23 29,23 27,18" fill="#161616"/>
  <polygon points="47,28 50,34 45,39 40,35 41,29" fill="#161616"/>
  <polygon points="42,48 35,51 31,46 34,40 40,41" fill="#161616"/>
  <polygon points="22,48 16,43 19,37 25,38 28,44" fill="#161616"/>
  <polygon points="17,28 22,23 27,27 25,34 19,34" fill="#161616"/>
  <path d="M32 32L32 21M32 32L47 28M32 32L42 48M32 32L22 48M32 32L17 28" stroke="#161616" stroke-width="1.5"/>
</svg>
